<svg xmlns="http://www.w3.org/2000/svg" xmlns:xlink="http://www.w3.org/1999/xlink" viewBox="0 0 19 22"><defs><style>.a{fill:none;}.b{clip-path:url(#a);}</style><clipPath id="a" transform="translate(-2.5 -1)"><rect class="a" width="24" height="24"/></clipPath></defs><title>beer</title><g class="b"><path d="M4.5,20a1,1,0,0,0,0,2h13a1,1,0,0,0,0-2Zm13,3H4.5a2,2,0,0,1,0-4h13a2,2,0,0,1,0,4Z" transform="translate(-2.5 -1)"/><path d="M17.5,20a.5.5,0,0,1-.5-.45l-1-10A.5.5,0,0,1,16.45,9a.51.51,0,0,1,.55.45l1,10a.5.5,0,0,1-.45.55Z" transform="translate(-2.5 -1)"/><path d="M4.5,20H4.44A.5.5,0,0,1,4,19.45l1-9A.49.49,0,0,1,5.56,10a.5.5,0,0,1,.44.55l-1,9A.5.5,0,0,1,4.5,20Z" transform="translate(-2.5 -1)"/><path d="M7.5,18h0A.5.5,0,0,1,7,17.47L7.5,10A.51.51,0,0,1,8,9.5.5.5,0,0,1,8.5,10L8,17.53A.5.5,0,0,1,7.5,18Z" transform="translate(-2.5 -1)"/><path d="M11,18a.5.5,0,0,1-.5-.5v-8a.5.5,0,0,1,1,0v8A.5.5,0,0,1,11,18Z" transform="translate(-2.5 -1)"/><path d="M14.5,18a.5.5,0,0,1-.5-.47l-.5-8A.5.5,0,0,1,14,9a.49.49,0,0,1,.53.47l.5,8a.5.5,0,0,1-.47.53Z" transform="translate(-2.5 -1)"/><path d="M6,5A2.5,2.5,0,1,0,8.45,8a.5.5,0,0,1,.88-.23,3.51,3.51,0,0,0,4.76.56.49.49,0,0,1,.37-.1.5.5,0,0,1,.33.2A1.48,1.48,0,0,0,16,9a1.5,1.5,0,0,0,0-3,.5.5,0,0,1-.5-.5,3.49,3.49,0,0,0-7-.18.5.5,0,0,1-.84.34A2.49,2.49,0,0,0,6,5Zm0,6A3.5,3.5,0,0,1,6,4a3.46,3.46,0,0,1,1.65.42A4.49,4.49,0,0,1,16.48,5,2.5,2.5,0,0,1,16,10a2.46,2.46,0,0,1-1.68-.66A4.5,4.5,0,0,1,9.17,9,3.5,3.5,0,0,1,6,11Z" transform="translate(-2.5 -1)"/><path d="M17.5,18a.5.5,0,0,1,0-1,3,3,0,0,0,3-3V10.5A1.5,1.5,0,0,0,19,9H18a.5.5,0,0,1,0-1h1a2.5,2.5,0,0,1,2.5,2.5V14A4,4,0,0,1,17.5,18Z" transform="translate(-2.5 -1)"/></g></svg>