<svg xmlns="http://www.w3.org/2000/svg" viewBox="0 0 64 64" enable-background="new 0 0 64 64"><style type="text/css">.st0{fill:#88ACC9;} .st1{opacity:0.2;fill:#272324;enable-background:new ;} .st2{fill:#FFFFFF;} .st3{fill:#535C70;}</style><circle class="st0" cx="32" cy="32" r="32"/><path class="st1" d="M41.6 45.8c-4.6 5.2-9.6 8.2-9.6 8.2s-.5-2.4-1.2-6.1c-10.1-.5-18.2-7.8-18.7-16.9l-.1 1c0 9.6 8.3 17.4 18.8 17.9.7 3.7 1.2 6.1 1.2 6.1s5-3 9.6-8.2c6.2-3.1 10.4-9 10.4-15.8 0-.3 0-.7-.1-1-.3 6.4-4.4 11.9-10.3 14.8z"/><path class="st2" d="M32 12c-11 0-20 8.1-20 18 0 .3 0 .7.1 1 .6 9.1 8.6 16.4 18.7 16.9.7 3.7 1.2 6.1 1.2 6.1s5-3 9.6-8.2c5.9-2.9 9.9-8.4 10.3-14.8l.1-1c0-9.9-9-18-20-18zm-8 20c-1.1 0-2-.9-2-2s.9-2 2-2 2 .9 2 2-.9 2-2 2zm8 0c-1.1 0-2-.9-2-2s.9-2 2-2 2 .9 2 2-.9 2-2 2zm8 0c-1.1 0-2-.9-2-2s.9-2 2-2 2 .9 2 2-.9 2-2 2z"/><circle class="st3" cx="32" cy="30" r="2"/><circle class="st3" cx="40" cy="30" r="2"/><circle class="st3" cx="24" cy="30" r="2"/></svg>
