<svg xmlns="http://www.w3.org/2000/svg" viewBox="0 0 64 64" enable-background="new 0 0 64 64"><style type="text/css">.st0{fill:#A95B5B;} .st1{opacity:0.2;fill:#272324;enable-background:new ;} .st2{fill:#DEDECF;} .st3{fill:#535C70;}</style><circle class="st0" cx="32" cy="32" r="32"/><path class="st1" d="M44 38c-4.5 0-6.8-1.5-7.7-2.4 5.4-4.5 11.7-10.8 11.7-21.6l-16 17.1-16-17.1c0 10.8 6.3 17.1 11.7 21.6-.9.9-3.2 2.4-7.7 2.4-4.4 0-8 3.6-8 8s3.6 8 8 8c3.4 0 6.3-2.1 7.4-5.1.6-1.2 1-2.8 1-4.7 0-1.7 1.4-3.3 3.5-5.1 2.1 1.8 3.5 3.4 3.5 5.1 0 1.9.5 3.5 1 4.7 1.2 3 4.1 5.1 7.4 5.1 4.4 0 8-3.6 8-8s-3.4-8-7.8-8zm-24 12c-2.2 0-4-1.8-4-4s1.8-4 4-4 4 1.8 4 4-1.8 4-4 4zm24 0c-2.2 0-4-1.8-4-4s1.8-4 4-4 4 1.8 4 4-1.8 4-4 4z"/><path class="st2" d="M44 36c-4.5 0-6.8-1.5-7.7-2.4 5.4-4.5 11.7-10.8 11.7-21.6l-16 17.1-16-17.1c0 10.8 6.3 17.1 11.7 21.6-.9.9-3.2 2.4-7.7 2.4-4.4 0-8 3.6-8 8s3.6 8 8 8c3.4 0 6.3-2.1 7.4-5.1.6-1.2 1-2.8 1-4.7 0-1.7 1.4-3.3 3.5-5.1 2.1 1.8 3.5 3.4 3.5 5.1 0 1.9.5 3.5 1 4.7 1.2 3 4.1 5.1 7.4 5.1 4.4 0 8-3.6 8-8s-3.4-8-7.8-8zm-24 12c-2.2 0-4-1.8-4-4s1.8-4 4-4 4 1.8 4 4-1.8 4-4 4zm12-13.5c-.8 0-1.5-.7-1.5-1.5s.7-1.5 1.5-1.5 1.5.7 1.5 1.5-.7 1.5-1.5 1.5zm12 13.5c-2.2 0-4-1.8-4-4s1.8-4 4-4 4 1.8 4 4-1.8 4-4 4z"/><circle class="st3" cx="32" cy="33" r="1.5"/></svg>