<svg xmlns="http://www.w3.org/2000/svg" xmlns:xlink="http://www.w3.org/1999/xlink" viewBox="0 0 23 23"><defs><style>.a{fill:none;}.b{clip-path:url(#a);}</style><clipPath id="a" transform="translate(-0.5 -0.5)"><rect class="a" width="24" height="24"/></clipPath></defs><title>copyright</title><g class="b"><path d="M12,22.5A10.5,10.5,0,1,1,22.5,12,10.51,10.51,0,0,1,12,22.5Zm0-22A11.5,11.5,0,1,0,23.5,12,11.51,11.51,0,0,0,12,.5Z" transform="translate(-0.5 -0.5)"/><path d="M12.5,6.5h-1a3,3,0,0,0-3,3v5a3,3,0,0,0,3,3h1a3,3,0,0,0,3-3V14a.5.5,0,0,0-1,0v.5a2,2,0,0,1-2,2h-1a2,2,0,0,1-2-2v-5a2,2,0,0,1,2-2h1a2,2,0,0,1,2,2V10a.5.5,0,0,0,1,0V9.5A3,3,0,0,0,12.5,6.5Z" transform="translate(-0.5 -0.5)"/></g></svg>