<svg xmlns="http://www.w3.org/2000/svg" xmlns:xlink="http://www.w3.org/1999/xlink" viewBox="0 0 21.5 24"><defs><style>.a{fill:none;}.b{clip-path:url(#a);}</style><clipPath id="a" transform="translate(-1.25)"><rect class="a" width="24" height="24"/></clipPath></defs><title>french</title><g class="b"><path d="M6.29,21.94A1.49,1.49,0,0,0,7.73,23h8a1.49,1.49,0,0,0,1.43-1.06L20.57,11H16.72a4.51,4.51,0,0,1-4.47,4h-1a4.51,4.51,0,0,1-4.47-4H2.93ZM15.77,24h-8a2.49,2.49,0,0,1-2.39-1.76L1.77,10.65A.5.5,0,0,1,2.25,10h5a.5.5,0,0,1,.5.5,3.5,3.5,0,0,0,3.5,3.5h1a3.5,3.5,0,0,0,3.5-3.5.5.5,0,0,1,.5-.5h5a.5.5,0,0,1,.48.65L18.16,22.24A2.49,2.49,0,0,1,15.77,24Z" transform="translate(-1.25)"/><path d="M18.75,11h-.07a.5.5,0,0,1-.42-.57l.44-3.05-1-.25-.43,3.44a.5.5,0,1,1-1-.12l.5-4A.5.5,0,0,1,17.37,6l2,.5a.5.5,0,0,1,.37.56l-.5,3.5A.5.5,0,0,1,18.75,11Z" transform="translate(-1.25)"/><path d="M12.75,14.5h0a.5.5,0,0,1-.47-.53l.5-9.5a.5.5,0,0,1,.5-.47h2a.5.5,0,0,1,.5.53l-.5,9a.5.5,0,1,1-1-.06L14.72,5h-1l-.48,9A.5.5,0,0,1,12.75,14.5Z" transform="translate(-1.25)"/><path d="M2.75,11a.5.5,0,0,1-.49-.42l-1-6A.5.5,0,0,1,1.65,4l2.5-.5a.5.5,0,0,1,.59.41l.5,3a.5.5,0,0,1-1,.16L3.84,4.59l-1.52.3.92,5.52a.5.5,0,0,1-.41.57Z" transform="translate(-1.25)"/><path d="M5.25,11a.5.5,0,0,1-.49-.43l-.5-3.5a.5.5,0,0,1,.37-.56l1.6-.4L5.82,2.62l-1.07.27V4a.5.5,0,0,1-1,0V2.5A.5.5,0,0,1,4.13,2l2-.5a.5.5,0,0,1,.4.07.5.5,0,0,1,.21.35l1,8.5a.5.5,0,0,1-1,.12L6.32,7.12l-1,.25.44,3.05a.5.5,0,0,1-.42.57Z" transform="translate(-1.25)"/><path d="M9.25,5a.5.5,0,0,1-.48-.36L7.94,1.72l-1.46.73A.5.5,0,1,1,6,1.55l2-1a.49.49,0,0,1,.43,0,.5.5,0,0,1,.28.32l1,3.5A.5.5,0,0,1,9.39,5Z" transform="translate(-1.25)"/><path d="M10.32,4h.43a.5.5,0,0,1,.5.48l.09,1.77L11.71,1h-1Zm.93,11h0a.5.5,0,0,1-.49-.48L10.27,5h-1l.47,9a.5.5,0,0,1-.47.53A.51.51,0,0,1,8.75,14l-.5-9.5A.5.5,0,0,1,8.75,4h.56L9.75.44a.5.5,0,0,1,.5-.44h2a.5.5,0,0,1,.5.53l-1,14A.5.5,0,0,1,11.25,15Z" transform="translate(-1.25)"/><path d="M14.25,5a.5.5,0,0,1-.5-.5V2h-1.5a.5.5,0,0,1,0-1h2a.5.5,0,0,1,.5.5v3A.5.5,0,0,1,14.25,5Z" transform="translate(-1.25)"/><path d="M16.25,11h-.07a.5.5,0,0,1-.42-.57l.93-6.52-2.52-.42a.5.5,0,1,1,.16-1l3,.5a.5.5,0,0,1,.41.56l-1,7A.5.5,0,0,1,16.25,11Z" transform="translate(-1.25)"/><path d="M20.25,11l-.16,0a.5.5,0,0,1-.32-.63l1.86-5.59-1.16-.58L19.2,6.72a.5.5,0,0,1-.9-.45l1.5-3a.5.5,0,0,1,.67-.22l2,1a.5.5,0,0,1,.25.61l-2,6A.5.5,0,0,1,20.25,11Z" transform="translate(-1.25)"/><path d="M19.25,6a.5.5,0,0,1-.5-.5V2h-1V3.5a.5.5,0,0,1-1,0v-2a.5.5,0,0,1,.5-.5h2a.5.5,0,0,1,.5.5v4A.5.5,0,0,1,19.25,6Z" transform="translate(-1.25)"/></g></svg>