<svg xmlns="http://www.w3.org/2000/svg" xmlns:xlink="http://www.w3.org/1999/xlink" viewBox="0 0 24 23.72"><defs><style>.a{fill:none;}.b{clip-path:url(#a);}</style><clipPath id="a" transform="translate(0 -0.14)"><rect class="a" width="24" height="24"/></clipPath></defs><title>github</title><g class="b"><path d="M14.76,17.74a6.3,6.3,0,0,1,.24,1.9v3.08A11,11,0,1,0,1,12.14,11.07,11.07,0,0,0,9,22.72V21.14H8.5c-1.76,0-2.81-1.46-3.66-2.64-.48-.67-1-1.36-1.34-1.36a.5.5,0,0,1,0-1A5.31,5.31,0,0,1,7,17.43a2.59,2.59,0,0,0,1.52.71.56.56,0,0,0,.38-.09A.56.56,0,0,0,9,17.66c-3-1-5-3.37-5-6A5.65,5.65,0,0,1,5.48,7.88a3.63,3.63,0,0,1,.66-3.59.49.49,0,0,1,.48-.13A5.78,5.78,0,0,1,9,5.61a9.71,9.71,0,0,1,5.94,0,5.78,5.78,0,0,1,2.4-1.45.49.49,0,0,1,.48.13,3.63,3.63,0,0,1,.66,3.59A5.64,5.64,0,0,1,20,11.64C20,14.37,17.87,16.81,14.76,17.74Zm-.26,6.12a.5.5,0,0,1-.5-.5V19.64a4.29,4.29,0,0,0-.36-2,.5.5,0,0,1,.33-.72c3-.68,5-2.85,5-5.27a4.74,4.74,0,0,0-1.42-3.31.5.5,0,0,1-.09-.56,2.8,2.8,0,0,0-.15-2.55A4.92,4.92,0,0,0,15.5,6.51a.5.5,0,0,1-.55.15,8.67,8.67,0,0,0-5.89,0,.5.5,0,0,1-.55-.15A4.92,4.92,0,0,0,6.67,5.22a2.8,2.8,0,0,0-.15,2.55.5.5,0,0,1-.09.56A4.75,4.75,0,0,0,5,11.64C5,13.95,6.86,16,9.64,16.81a.5.5,0,0,1,.36.48v.35a1.48,1.48,0,0,1-.46,1.17,1.5,1.5,0,0,1-1.1.33h0a3.44,3.44,0,0,1-2-.9,7.52,7.52,0,0,0-1-.64l.23.32c.75,1,1.6,2.23,2.85,2.23h1a.5.5,0,0,1,.5.5v2.72a.5.5,0,0,1-.19.39.51.51,0,0,1-.42.1A12,12,0,1,1,24,12.14a12.07,12.07,0,0,1-9.39,11.71Z" transform="translate(0 -0.14)"/></g></svg>