<svg xmlns="http://www.w3.org/2000/svg" xmlns:xlink="http://www.w3.org/1999/xlink" viewBox="0 0 24 23"><defs><style>.a{fill:none;}.b{clip-path:url(#a);}</style><clipPath id="a" transform="translate(0 -0.5)"><rect class="a" width="24" height="24"/></clipPath></defs><title>hotdog</title><g class="b"><path d="M3.5,21.5C.25,21.5,0,19.59,0,19c0-1.23,1.39-2.69,3.31-3.46.07,0,6.49-2.55,8.33-4.39A19,19,0,0,0,16,3.84C17.1.75,18.23.5,19.5.5A2.3,2.3,0,0,1,22,3a5.08,5.08,0,0,1-.17,1.12.5.5,0,1,1-1-.24A4.06,4.06,0,0,0,21,3a1.33,1.33,0,0,0-1.5-1.5c-.86,0-1.6,0-2.53,2.66a20,20,0,0,1-4.62,7.69c-2,2-8.4,4.51-8.67,4.61C2,17.14,1,18.3,1,19c0,1.31,1.57,1.5,2.5,1.5a6.21,6.21,0,0,0,1-.11.5.5,0,0,1,.18,1A7.22,7.22,0,0,1,3.5,21.5Z" transform="translate(0 -0.5)"/><path d="M2.5,16.5A.5.5,0,0,1,2,16c0-1.67,1.34-2.49,3.19-3.62a24.85,24.85,0,0,0,5-3.73,11.1,11.1,0,0,0,2.7-4.28C13.5,2.7,14,1.5,17,1.5a.5.5,0,0,1,0,1c-2.35,0-2.6.65-3.22,2.23a12.12,12.12,0,0,1-2.93,4.63,25.63,25.63,0,0,1-5.14,3.88C3.88,14.35,3,14.94,3,16A.5.5,0,0,1,2.5,16.5Z" transform="translate(0 -0.5)"/><path d="M21.08,4.48a3.84,3.84,0,0,0-2.27.91,5.1,5.1,0,0,0-1.58,2.47,12.49,12.49,0,0,1-3.9,5.52,59.66,59.66,0,0,1-7.09,5.06A2,2,0,0,0,5.07,20.6c.22.88,1.25,1.9,3.44,1.9,1.66,0,5.94-2.65,8.65-5.35S23,9.95,23,7a2.41,2.41,0,0,0-1.09-2.34A1.9,1.9,0,0,0,21.08,4.48ZM8.5,23.5c-2.76,0-4.1-1.43-4.41-2.65a2.93,2.93,0,0,1,1.67-3.29,58.21,58.21,0,0,0,6.91-4.94A11.48,11.48,0,0,0,16.3,7.5a6,6,0,0,1,1.9-2.89,4.05,4.05,0,0,1,4.16-.85A3.33,3.33,0,0,1,24,7c0,3.72-3.86,8.57-6.15,10.85C15.19,20.52,10.62,23.5,8.5,23.5Z" transform="translate(0 -0.5)"/><path d="M2.5,20H2.38l-2-.5a.5.5,0,0,1-.1-.93l2-1a.5.5,0,0,1,.45.89l-.79.4.69.17a.5.5,0,0,1-.12,1Z" transform="translate(0 -0.5)"/><path d="M20,3.5a.5.5,0,0,1-.48-.38l-.17-.69-.4.79a.5.5,0,0,1-.9-.45l1-2a.5.5,0,0,1,.93.1l.5,2a.5.5,0,0,1-.36.61Z" transform="translate(0 -0.5)"/></g></svg>