<svg style="position:absolute;width:0;height:0" xmlns="http://www.w3.org/2000/svg" overflow="hidden"><defs><symbol viewBox="0 0 19 32"><title>mobile</title><path class="path1" d="M3.333 1.333c-1.105 0-2 .895-2 2v25.333c0 1.105.895 2 2 2h12c1.105 0 2-.895 2-2v-25.333c0-1.105-.895-2-2-2zm12 30.667h-12c-1.841 0-3.333-1.492-3.333-3.333v-25.333c0-1.841 1.492-3.333 3.333-3.333h12c1.841 0 3.333 1.492 3.333 3.333v25.333c0 1.841-1.492 3.333-3.333 3.333z"/><path class="path2" d="M18 6.667h-17.333c-.368 0-.667-.298-.667-.667s.298-.667.667-.667h17.333c.368 0 .667.298.667.667s-.298.667-.667.667z"/><path class="path3" d="M18 26.667h-17.333c-.368 0-.667-.298-.667-.667s.298-.667.667-.667h17.333c.368 0 .667.298.667.667s-.298.667-.667.667z"/><path class="path4" d="M10 4h-1.333c-.368 0-.667-.298-.667-.667s.298-.667.667-.667h1.333c.368 0 .667.298.667.667s-.298.667-.667.667z"/><path class="path5" d="M14.027 4l-.027.001c-.368 0-.667-.298-.667-.667v-.001c0-.364.291-.659.653-.667h.001c.368 0 .667.298.667.667s-.298.667-.667.667z"/><path class="path6" d="M6 29.333h-2.667c-.368 0-.667-.298-.667-.667s.298-.667.667-.667h2.667c.368 0 .667.298.667.667s-.298.667-.667.667z"/><path class="path7" d="M15.333 29.333h-2.667c-.368 0-.667-.298-.667-.667s.298-.667.667-.667h2.667c.368 0 .667.298.667.667s-.298.667-.667.667z"/></symbol><symbol viewBox="0 0 70 32"><title>sendmail</title><path class="path1" d="M27.142 2.909h-.015c-1.818 0-3.374 1.119-4.018 2.706l-8.563 21.469c-.069.163-.109.353-.109.553 0 .803.651 1.455 1.455 1.455h38.276c1.812-.006 3.362-1.123 4.004-2.706l8.738-21.469c.069-.163.109-.353.109-.553 0-.803-.651-1.455-1.455-1.455h-.023zm27.025 29.091h-38.313c-2.408-.003-4.359-1.955-4.359-4.364 0-.587.116-1.147.326-1.658l8.542-21.411c1.094-2.699 3.694-4.567 6.731-4.567h38.36c2.408.003 4.359 1.955 4.359 4.364 0 .587-.116 1.147-.326 1.658l-8.571 21.411c-1.085 2.698-3.68 4.567-6.711 4.567h-.04z"/><path class="path2" d="M40.727 17.484c-2.359-.001-4.529-.812-6.247-2.169l-7.804-6.966c-.332-.269-.542-.676-.542-1.133 0-.803.651-1.455 1.455-1.455.391 0 .747.155 1.008.406l7.767 6.923c1.201.925 2.726 1.483 4.382 1.483 1.125 0 2.189-.257 3.138-.716l15.084-7.865c.194-.103.425-.163.669-.163.805 0 1.457.652 1.457 1.457 0 .56-.316 1.047-.78 1.291l-15.193 7.917c-1.286.622-2.797.986-4.392.989z"/><path class="path3" d="M18.909 26.182l-.276.026c-.818 0-1.481-.663-1.481-1.481 0-.72.514-1.32 1.195-1.453l14.555-5.82c.159-.065.344-.103.538-.103.804 0 1.456.652 1.456 1.456 0 .61-.375 1.133-.908 1.349l-14.555 5.822c-.15.096-.326.168-.515.202z"/><path class="path4" d="M53.818 26.182c-.343-.004-.656-.124-.905-.322l-7.27-5.816c-.281-.266-.456-.641-.456-1.058 0-.803.651-1.455 1.455-1.455.3 0 .579.091.81.247l7.267 5.815c.333.269.544.677.544 1.135 0 .8-.646 1.45-1.446 1.455z"/><path class="path5" d="M13.091 5.818h-11.636c-.803 0-1.455-.651-1.455-1.455s.651-1.455 1.455-1.455h11.636c.803 0 1.455.651 1.455 1.455s-.651 1.455-1.455 1.455z"/><path class="path6" d="M4.364 29.091h-2.909c-.803 0-1.455-.651-1.455-1.455s.651-1.455 1.455-1.455h2.909c.803 0 1.455.651 1.455 1.455s-.651 1.455-1.455 1.455z"/><path class="path7" d="M7.273 17.455h-5.818c-.803 0-1.455-.651-1.455-1.455s.651-1.455 1.455-1.455h5.818c.803 0 1.455.651 1.455 1.455s-.651 1.455-1.455 1.455z"/></symbol><symbol viewBox="0 0 32 32"><title>tag</title><path class="path1" d="M19.678 1.357c-.186.003-.354.08-.475.203l-17.642 17.642c-.124.123-.201.293-.201.482s.077.359.201.482l10.3 10.3c.123.124.293.201.482.201s.359-.077.482-.201l17.642-17.642c.123-.121.201-.289.204-.474v-10.314c0-.375-.304-.679-.679-.679zm-7.356 30.643c-.562 0-1.07-.229-1.438-.597l-10.287-10.287c-.368-.368-.595-.877-.595-1.439s.228-1.07.595-1.439l17.642-17.642c.369-.367.877-.595 1.438-.597h10.301c1.124 0 2.036.911 2.036 2.036v10.291c0 .561-.228 1.068-.597 1.435l-17.642 17.642c-.368.369-.878.597-1.44.597h-.012z"/><path class="path2" d="M24.536 5.428c-1.124 0-2.036.911-2.036 2.036s.911 2.036 2.036 2.036c1.124 0 2.036-.911 2.036-2.036s-.911-2.036-2.036-2.036zm0 5.429c-1.874 0-3.393-1.519-3.393-3.393s1.519-3.393 3.393-3.393c1.874 0 3.393 1.519 3.393 3.393s-1.519 3.393-3.393 3.393z"/></symbol><symbol viewBox="0 0 32 32"><title>info</title><path class="path1" d="M16 6.957c1.153 0 2.087.934 2.087 2.087s-.934 2.087-2.087 2.087-2.087-.934-2.087-2.087.934-2.087 2.087-2.087zm0 5.565c1.921 0 3.478-1.557 3.478-3.478s-1.557-3.478-3.478-3.478c-1.921 0-3.478 1.557-3.478 3.478s1.557 3.478 3.478 3.478zm0 18.087c-8.068 0-14.609-6.541-14.609-14.609s6.541-14.609 14.609-14.609 14.609 6.541 14.609 14.609c-.008 8.065-6.544 14.601-14.608 14.609zm0-30.609c-8.837 0-16 7.163-16 16s7.163 16 16 16 16-7.163 16-16c-.008-8.833-7.167-15.992-15.999-16zm4.174 25.043h-6.957c-.384 0-.696-.311-.696-.696s.311-.696.696-.696h1.391c.384 0 .696-.311.696-.696v-5.565c0-.384-.311-.696-.696-.696h-1.391c-.384 0-.696-.311-.696-.696s.311-.696.696-.696h4.87v7.652c0 .384.311.696.696.696h1.391c.384 0 .696.311.696.696s-.311.696-.696.696zm0-2.782h-.696v-7.652c0-.384-.311-.696-.696-.696h-5.565c-1.153 0-2.087.934-2.087 2.087s.934 2.087 2.087 2.087h.696v4.174h-.696c-1.153 0-2.087.934-2.087 2.087s.934 2.087 2.087 2.087h6.957c1.153 0 2.087-.934 2.087-2.087s-.934-2.087-2.087-2.087z"/></symbol><symbol viewBox="0 0 32 32"><title>copyright</title><path class="path1" d="M16 30.609c-8.068 0-14.609-6.541-14.609-14.609s6.541-14.609 14.609-14.609 14.609 6.541 14.609 14.609c-.008 8.065-6.544 14.601-14.608 14.609zm0-30.609c-8.837 0-16 7.163-16 16s7.163 16 16 16 16-7.163 16-16c-.008-8.833-7.167-15.992-15.999-16z"/><path class="path2" d="M16.696 8.348h-1.391c-2.305 0-4.174 1.869-4.174 4.174v6.957c0 2.305 1.869 4.174 4.174 4.174h1.391c2.305 0 4.174-1.869 4.174-4.174v-.696c0-.384-.311-.696-.696-.696s-.696.311-.696.696v.696c0 1.537-1.246 2.783-2.783 2.783h-1.391c-1.537 0-2.783-1.246-2.783-2.783v-6.957c0-1.537 1.246-2.783 2.783-2.783h1.391c1.537 0 2.783 1.246 2.783 2.783v.696c0 .384.311.696.696.696s.696-.311.696-.696v-.696c0-2.305-1.869-4.174-4.174-4.174z"/></symbol><symbol viewBox="0 0 32 32"><title>github</title><path class="path1" d="M19.912 23.744c.207.699.327 1.503.327 2.334l-.003.241v4.143c6.28-1.822 10.793-7.523 10.793-14.277 0-8.196-6.644-14.84-14.84-14.84s-14.84 6.644-14.84 14.84v.004c.035 6.742 4.532 12.424 10.687 14.246l.106-2.105h-.675c-2.374 0-3.791-1.97-4.938-3.562-.648-.904-1.349-1.835-1.808-1.835-.373 0-.675-.302-.675-.675s.302-.675.675-.675h.041c1.793 0 3.433.659 4.689 1.748.531.513 1.239.862 2.026.949l.109.007c.156 0 .302-.047.422-.129.085-.12.137-.272.137-.436l-.005-.092c-4.047-1.345-6.745-4.543-6.745-8.091.012-1.969.768-3.759 2.002-5.105-.188-.487-.294-1.056-.294-1.65 0-1.22.446-2.336 1.184-3.193.115-.116.282-.193.467-.193l.18.025c1.257.402 2.335 1.075 3.205 1.954 1.198-.397 2.576-.627 4.007-.627s2.81.23 4.099.654c.786-.91 1.873-1.584 3.09-1.968l.23-.039c.185 0 .353.076.473.199.733.851 1.179 1.967 1.179 3.187 0 .594-.106 1.163-.299 1.69 1.254 1.293 2.028 3.072 2.061 5.032 0 3.69-2.873 6.981-7.069 8.236zm-.35 8.256c-.373 0-.675-.302-.675-.675v-5.019l.011-.353c0-.849-.183-1.655-.511-2.382-.034-.055-.063-.163-.063-.278 0-.319.221-.586.518-.656 4.052-.918 6.75-3.846 6.75-7.111-.028-1.751-.756-3.327-1.915-4.464-.117-.122-.188-.286-.188-.467 0-.105.024-.205.067-.294.201-.444.319-.968.319-1.519 0-.707-.194-1.369-.532-1.935-.955.418-1.771 1.005-2.427 1.738-.13.154-.315.247-.522.247l-.23-.04c-1.177-.439-2.543-.694-3.968-.694s-2.791.255-4.054.722l-.144.012c-.207 0-.392-.093-.516-.24-.672-.75-1.502-1.342-2.439-1.725-.373.533-.567 1.194-.567 1.901 0 .551.118 1.075.33 1.547.032.061.056.16.056.266 0 .181-.071.345-.187.466-1.164 1.137-1.896 2.713-1.929 4.459 0 3.123 2.509 5.888 6.26 6.981.283.084.486.342.486.648v.472l.004.128c0 .571-.24 1.086-.624 1.45-.347.285-.793.456-1.28.456l-.214-.011.009.001c-1.051-.107-1.982-.549-2.701-1.217-.388-.297-.83-.583-1.293-.834l.257.405c1.012 1.349 2.159 3.008 3.845 3.008h1.349c.373 0 .675.302.675.675v3.669c-.001.213-.1.402-.255.525-.118.094-.267.15-.429.15l-.143-.015c-7.311-1.658-12.69-8.104-12.69-15.806 0-8.941 7.248-16.189 16.189-16.189 8.94 0 16.187 7.246 16.189 16.185-.039 7.679-5.386 14.098-12.558 15.776z"/></symbol><symbol viewBox="0 0 32 32"><title>linkedIn</title><path class="path1" d="M4 1.333c-1.473 0-2.667 1.194-2.667 2.667s1.194 2.667 2.667 2.667c1.473 0 2.667-1.194 2.667-2.667s-1.194-2.667-2.667-2.667zm0 6.667c-2.209 0-4-1.791-4-4s1.791-4 4-4 4 1.791 4 4-1.791 4-4 4z"/><path class="path2" d="M1.333 30.667h5.333v-18.667h-5.333zm6 1.333h-6.667c-.368 0-.667-.298-.667-.667v-20c0-.368.298-.667.667-.667h6.667c.368 0 .667.298.667.667v20c0 .368-.298.667-.667.667z"/><path class="path3" d="M25.333 30.667h5.333v-12.667c0-3.707-1.4-6.133-3.907-6.987-.689-.199-1.48-.314-2.298-.314-2.308 0-4.404.912-5.945 2.396-.12.15-.308.247-.517.247-.368 0-.667-.298-.667-.667v-.676h-5.333v18.667h5.333v-14.004c0-.186.077-.355.2-.476.891-.933 2.144-1.514 3.533-1.514.618 0 1.21.115 1.754.325 1.491.702 2.527 2.223 2.527 3.986l-.015.365.001 11.318zm6 1.333h-6.667c-.368 0-.667-.298-.667-.667v-12l.015-.309c0-1.226-.704-2.288-1.731-2.803-.374-.142-.785-.22-1.215-.22-.932 0-1.778.365-2.405.959l.002 14.372c0 .368-.298.667-.667.667h-6.667c-.368 0-.667-.298-.667-.667v-20c0-.368.298-.667.667-.667h6.667c.308.003.566.216.639.502 1.614-1.131 3.62-1.811 5.784-1.811.989 0 1.945.142 2.849.406 2.062.729 4.648 2.755 4.728 8.235v13.333c0 .368-.298.667-.667.667z"/></symbol><symbol viewBox="0 0 31 32"><title>google</title><path class="path1" d="M11.333 1.333c-2.947 0-7.333 1.773-7.333 6.667 0 5.333 7.027 5.333 7.333 5.333.364.005.657.302.657.667 0 .182-.073.347-.191.467-.549.572-.888 1.35-.888 2.207s.338 1.635.889 2.208c.109.118.177.277.177.453 0 .361-.286.654-.644.666-.094 0-10.001.067-10.001 6l-.004.174c0 1.04.419 1.982 1.098 2.666 1.92 1.893 5.946 1.826 7.266 1.826h.307c.093 0 10-.253 10-6 0-3.547-2.667-5.453-4.533-6.84-1.24-.907-2.133-1.56-2.133-2.493s.867-1.787 1.947-2.867c1.507-1.493 3.387-3.36 3.387-5.8 0-4.213-4.667-5.333-7.333-5.333zm-2.213 30.667c-1.907 0-5.547-.173-7.627-2.227-.924-.924-1.496-2.201-1.496-3.611l.003-.17c0-5.232 6-6.992 10.106-7.325-.333-.594-.528-1.304-.528-2.06s.196-1.466.54-2.082c-3.158-.285-7.451-1.938-7.451-6.525 0-5.2 4.467-8 8.667-8s8.667 2.067 8.667 6.667c0 3-2.187 5.173-3.787 6.747-.693.68-1.547 1.533-1.547 1.92s.96.96 1.587 1.413c2.027 1.467 5.08 3.693 5.08 7.92 0 7.133-11.213 7.333-11.333 7.333h-.88z"/><path class="path2" d="M12.48 20c-3.413.08-7.147 2.333-7.147 5.333s3.227 4 6 4 6-1.707 6-4c0-1.947-3.333-4.413-4.853-5.333zm-1.147 10.667c-3.387 0-7.333-1.333-7.333-5.333s4.573-6.667 8.667-6.667h.006c.126 0 .243.035.343.095.57.345 5.65 3.452 5.65 6.572s-3.787 5.333-7.333 5.333z"/><path class="path3" d="M10.373 1.4l-.287-.016-.299.017c-1.961.452-3.028 3.159-2.361 6.026s2.8 4.893 4.773 4.44 3.04-3.16 2.373-6.027c-.573-2.587-2.4-4.44-4.2-4.44zm1.334 11.853c-2.413 0-4.773-2.267-5.52-5.467-.88-3.573.627-7 3.32-7.613s5.547 1.787 6.373 5.333c.827 3.587-.693 7-3.373 7.627-.258.07-.556.113-.863.12z"/><path class="path4" d="M20 1.333h-8.667c-.368 0-.667-.298-.667-.667s.298-.667.667-.667h8.667c.368 0 .667.298.667.667s-.298.667-.667.667z"/><path class="path5" d="M26 18.667c-.368 0-.667-.298-.667-.667v-8c0-.368.298-.667.667-.667s.667.298.667.667v8c0 .368-.298.667-.667.667z"/><path class="path6" d="M30 14.667h-8c-.368 0-.667-.298-.667-.667s.298-.667.667-.667h8c.368 0 .667.298.667.667s-.298.667-.667.667z"/></symbol><symbol viewBox="0 0 39 32"><title>twitter</title><path class="path1" d="M4.489 28.544c2.434 1.128 5.282 1.786 8.284 1.786 4.147 0 8.001-1.255 11.202-3.407 6.297-4.172 10.211-11.812 9.448-18.47l-.005-.091c0-.293.149-.551.375-.703.691-.483 1.294-.99 1.85-1.544-.545.136-1.178.227-1.827.254l-.18.016c-.476 0-.862-.386-.862-.862 0-.419.299-.769.696-.846.687-.367 1.253-.863 1.69-1.461-.776.357-1.698.677-2.656.899l-.211.027c-.224 0-.427-.087-.579-.229-1.261-1.324-3.038-2.147-5.007-2.147-1.495 0-2.878.474-4.009 1.281-2.927 1.68-2.994 5.745-2.689 7.016l.025.205c0 .206-.073.395-.196.542-.158.186-.395.304-.658.304l-.037-.001c-6.165-.256-11.634-3.044-15.427-7.345-.294.665-.453 1.464-.453 2.299 0 .583.077 1.149.223 1.687.402 1.597 1.37 2.968 2.678 3.887.273.164.439.435.439.744 0 .406-.285.745-.666.828-.287.054-.611.085-.942.085-.732 0-1.429-.149-2.062-.419.853 2.64 2.945 4.643 5.57 5.32.483.058.814.418.814.854 0 .26-.117.492-.301.647-.737.562-1.669.9-2.68.9l-.422-.02c1.453 1.853 3.678 3.034 6.179 3.034h.041c.454.015.818.388.818.847 0 .248-.107.472-.277.627-2.224 1.879-5.033 3.131-8.118 3.451zm8.47 3.388c-4.631-.085-8.938-1.397-12.633-3.621-.139-.085-.307-.357-.307-.669 0-.468.379-.847.847-.847l.087.004c.475.054 1.03.085 1.592.085 2.701 0 5.235-.717 7.421-1.971-2.961-.625-5.292-2.572-6.47-5.155-.069-.158-.095-.275-.095-.398 0-.468.379-.847.847-.847l.247.036c.303.1.669.183 1.046.232-2.619-1.488-4.397-4.253-4.474-7.44.002-.477.38-.854.847-.854.199 0 .382.069.527.184.25.208.533.394.837.546-.627-.865-1.134-1.894-1.434-3.008-.183-.685-.28-1.399-.28-2.135 0-1.59.452-3.075 1.234-4.333.123-.198.37-.355.655-.372l.104-.006c.274 0 .518.127.676.326 3.353 4.203 8.294 7.014 13.9 7.518.055-.223.043-.489.043-.758 0-2.894 1.451-5.448 3.665-6.976 1.376-.964 3.05-1.529 4.855-1.529 2.268 0 4.328.892 5.848 2.343 1.547-.385 2.907-.914 4.175-1.591.04-.05.209-.107.391-.107.468 0 .847.379.847.847l-.031.228c-.293.942-.732 1.765-1.298 2.484.436-.133.797-.266 1.142-.425.065-.038.197-.072.336-.072.468 0 .847.379.847.847 0 .165-.047.32-.129.45-1.019 1.494-2.236 2.766-3.633 3.812.535 7.195-3.649 15.191-10.358 19.646-3.34 2.244-7.45 3.585-11.873 3.591z"/></symbol><symbol viewBox="0 0 32 32"><title>facebook</title><path class="path1" d="M28.667 32h-6.667c-.368 0-.667-.298-.667-.667v-12c0-.368.298-.667.667-.667h3.52l.893-2.667h-4.413c-.368 0-.667-.298-.667-.667v-4c0-1.841 1.492-3.333 3.333-3.333h2v-2.667h-2c-3.311.008-5.992 2.689-6 5.999v4.001c0 .368-.298.667-.667.667h-3.333v2.667h3.333c.368 0 .667.298.667.667v12c0 .368-.298.667-.667.667h-14.667c-1.841 0-3.333-1.492-3.333-3.333v-25.333c0-1.841 1.492-3.333 3.333-3.333h25.333c1.841 0 3.333 1.492 3.333 3.333v25.333c0 1.841-1.492 3.333-3.333 3.333zm-6-1.333h6c1.105 0 2-.895 2-2v-25.333c0-1.105-.895-2-2-2h-25.333c-1.105 0-2 .895-2 2v25.333c0 1.105.895 2 2 2h14v-10.667h-3.333c-.368 0-.667-.298-.667-.667v-4c0-.368.298-.667.667-.667h3.333v-3.333c.008-4.047 3.286-7.326 7.333-7.333h2.667c.368 0 .667.298.667.667v4c0 .368-.298.667-.667.667h-2.667c-1.105 0-2 .895-2 2v3.333h4.667c.366.003.662.3.662.667l-.036.218-1.332 3.995c-.091.264-.337.451-.626.453h-3.334z"/></symbol></defs></svg>