<svg xmlns="http://www.w3.org/2000/svg" xmlns:xlink="http://www.w3.org/1999/xlink" viewBox="0 0 23 24"><defs><style>.a{fill:none;}.b{clip-path:url(#a);}</style><clipPath id="a" transform="translate(-0.5)"><rect class="a" width="24" height="24"/></clipPath></defs><title>icon-google</title><g class="b"><path d="M9,1C6.79,1,3.5,2.33,3.5,6c0,4,5.27,4,5.5,4a.5.5,0,0,1,.35.85,2.39,2.39,0,0,0,0,3.31A.5.5,0,0,1,9,15c-.07,0-7.5.05-7.5,4.5a2.84,2.84,0,0,0,.82,2.13C3.76,23.05,6.78,23,7.77,23H8c.07,0,7.5-.19,7.5-4.5,0-2.66-2-4.09-3.4-5.13-.93-.68-1.6-1.17-1.6-1.87s.65-1.34,1.46-2.15C13.09,8.23,14.5,6.83,14.5,5,14.5,1.84,11,1,9,1ZM7.34,24c-1.43,0-4.16-.13-5.72-1.67A3.83,3.83,0,0,1,.5,19.5C.5,15.57,5,14.25,8.08,14a3.21,3.21,0,0,1,0-3.09C5.72,10.68,2.5,9.44,2.5,6,2.5,2.1,5.85,0,9,0s6.5,1.55,6.5,5c0,2.25-1.64,3.88-2.84,5.06-.52.51-1.16,1.15-1.16,1.44s.72.72,1.19,1.06c1.52,1.1,3.81,2.77,3.81,5.94C16.5,23.85,8.09,24,8,24H7.34Z" transform="translate(-0.5)"/><path d="M9.86,15c-2.56.06-5.36,1.75-5.36,4S6.92,22,9,22s4.5-1.28,4.5-3C13.5,17.54,11,15.69,9.86,15ZM9,23c-2.54,0-5.5-1-5.5-4s3.43-5,6.5-5a.5.5,0,0,1,.26.07c.43.26,4.24,2.59,4.24,4.93S11.66,23,9,23Z" transform="translate(-0.5)"/><path d="M8.28,1.05a1.93,1.93,0,0,0-.43,0c-1.48.34-2.28,2.37-1.78,4.52S8.17,9.24,9.65,8.9s2.28-2.37,1.78-4.52C11,2.44,9.63,1.05,8.28,1.05Zm1,8.89c-1.81,0-3.58-1.7-4.14-4.1C4.48,3.16,5.61.59,7.63.13s4.16,1.34,4.78,4h0c.62,2.69-.52,5.25-2.53,5.72A2.81,2.81,0,0,1,9.23,9.94Z" transform="translate(-0.5)"/><path d="M15.5,1H9A.5.5,0,0,1,9,0h6.5a.5.5,0,0,1,0,1Z" transform="translate(-0.5)"/><path d="M20,14a.5.5,0,0,1-.5-.5v-6a.5.5,0,0,1,1,0v6A.5.5,0,0,1,20,14Z" transform="translate(-0.5)"/><path d="M23,11H17a.5.5,0,0,1,0-1h6a.5.5,0,0,1,0,1Z" transform="translate(-0.5)"/></g></svg>