<svg xmlns="http://www.w3.org/2000/svg" viewBox="0 0 24 24"><title>icon-facebook</title><path d="M21.5,24h-5a.5.5,0,0,1-.5-.5v-9a.5.5,0,0,1,.5-.5h2.64l.67-2H16.5a.5.5,0,0,1-.5-.5v-3A2.5,2.5,0,0,1,18.5,6H20V4H18.5A4.51,4.51,0,0,0,14,8.5v3a.5.5,0,0,1-.5.5H11v2h2.5a.5.5,0,0,1,.5.5v9a.5.5,0,0,1-.5.5H2.5A2.5,2.5,0,0,1,0,21.5V2.5A2.5,2.5,0,0,1,2.5,0h19A2.5,2.5,0,0,1,24,2.5v19A2.5,2.5,0,0,1,21.5,24ZM17,23h4.5A1.5,1.5,0,0,0,23,21.5V2.5A1.5,1.5,0,0,0,21.5,1H2.5A1.5,1.5,0,0,0,1,2.5v19A1.5,1.5,0,0,0,2.5,23H13V15H10.5a.5.5,0,0,1-.5-.5v-3a.5.5,0,0,1,.5-.5H13V8.5A5.51,5.51,0,0,1,18.5,3h2a.5.5,0,0,1,.5.5v3a.5.5,0,0,1-.5.5h-2A1.5,1.5,0,0,0,17,8.5V11h3.5a.5.5,0,0,1,.47.66l-1,3a.5.5,0,0,1-.47.34H17Z"/></svg>