<svg xmlns="http://www.w3.org/2000/svg" xmlns:xlink="http://www.w3.org/1999/xlink" viewBox="0 0 23 23"><defs><style>.a{fill:none;}.b{clip-path:url(#a);}</style><clipPath id="a" transform="translate(-0.5 -0.5)"><rect class="a" width="24" height="24"/></clipPath></defs><title>info</title><g class="b"><path d="M12,5.5A1.5,1.5,0,1,1,10.5,7,1.5,1.5,0,0,1,12,5.5Zm0,4A2.5,2.5,0,1,0,9.5,7,2.5,2.5,0,0,0,12,9.5Zm0,13A10.5,10.5,0,1,1,22.5,12,10.51,10.51,0,0,1,12,22.5Zm0-22A11.5,11.5,0,1,0,23.5,12,11.51,11.51,0,0,0,12,.5Zm3,18H10a.5.5,0,0,1,0-1h1a.5.5,0,0,0,.5-.5V13a.5.5,0,0,0-.5-.5H10a.5.5,0,0,1,0-1h3.5V17a.5.5,0,0,0,.5.5h1a.5.5,0,0,1,0,1Zm0-2h-.5V11a.5.5,0,0,0-.5-.5H10a1.5,1.5,0,0,0,0,3h.5v3H10a1.5,1.5,0,0,0,0,3h5a1.5,1.5,0,0,0,0-3Z" transform="translate(-0.5 -0.5)"/></g></svg>