<svg xmlns="http://www.w3.org/2000/svg" viewBox="0 0 64 64" enable-background="new 0 0 64 64"><style type="text/css">.st0{fill:#C75C5C;} .st1{opacity:0.2;fill:#231F20;enable-background:new ;} .st2{fill:#E0E0D1;} .st3{fill:#FFFFFF;}</style><circle class="st0" cx="32" cy="32" r="32"/><path class="st1" d="M25 43.3v7.9c0 .5.6 1.3 1 1.5l5.3 3c.4.2 1.1.2 1.5 0l5.3-3c.4-.2 1-1.1 1-1.5v-7.9c-2.1 1.1-4.5 1.7-7 1.7-2.6 0-5-.6-7.1-1.7z"/><path class="st2" d="M25 41.3v7.9c0 .5.6 1.3 1 1.5l5.3 3c.4.2 1.1.2 1.5 0l5.3-3c.4-.2 1-1.1 1-1.5v-7.9h-14.1z"/><path class="st1" d="M46.4 34.6c0 8-6.4 14.4-14.4 14.4s-14.4-6.4-14.4-14.4h28.8zM33.5 15.5c0 .8-.7 1.5-1.5 1.5s-1.5-.7-1.5-1.5v-2c0-.8.7-1.5 1.5-1.5s1.5.7 1.5 1.5v2zM50.5 35.5c-.8 0-1.5-.7-1.5-1.5s.7-1.5 1.5-1.5h2c.8 0 1.5.7 1.5 1.5s-.7 1.5-1.5 1.5h-2zM13.5 32.5c.8 0 1.5.7 1.5 1.5s-.7 1.5-1.5 1.5h-2c-.8 0-1.5-.7-1.5-1.5s.7-1.5 1.5-1.5h2zM24 17.2c.4.7.2 1.6-.5 2-.7.4-1.6.2-2-.5l-1-1.7c-.4-.7-.2-1.6.5-2 .7-.4 1.6-.2 2 .5l1 1.7zM48.8 26c-.7.4-1.6.2-2-.5-.4-.7-.2-1.6.5-2l1.7-1c.7-.4 1.6-.2 2 .5.4.7.2 1.6-.5 2l-1.7 1zM15.2 42c.7-.4 1.6-.2 2 .5.4.7.2 1.6-.5 2l-1.7 1c-.7.4-1.6.2-2-.5-.4-.7-.2-1.6.5-2l1.7-1zM16.7 23.5c.7.4 1 1.3.5 2-.4.7-1.3 1-2 .5l-1.7-1c-.7-.4-1-1.3-.5-2 .4-.7 1.3-1 2-.5l1.7 1zM47.3 44.5c-.7-.4-1-1.3-.5-2 .4-.7 1.3-1 2-.5l1.7 1c.7.4 1 1.3.5 2-.4.7-1.3 1-2 .5l-1.7-1zM42.5 18.7c-.4.7-1.3 1-2 .5-.7-.4-1-1.3-.5-2l1-1.7c.4-.7 1.3-1 2-.5.7.4 1 1.3.5 2l-1 1.7z"/><path class="st2" d="M31.5 10c-.8 0-1.5.7-1.5 1.5v2c0 .8.7 1.5 1.5 1.5s1.5-.7 1.5-1.5v-2c0-.8-.7-1.5-1.5-1.5zM52.5 31h-2c-.8 0-1.5.7-1.5 1.5s.7 1.5 1.5 1.5h2c.8 0 1.5-.7 1.5-1.5s-.7-1.5-1.5-1.5zM15 32.5c0-.8-.7-1.5-1.5-1.5h-2c-.8 0-1.5.7-1.5 1.5s.7 1.5 1.5 1.5h2c.8 0 1.5-.7 1.5-1.5zM23 13.5c-.4-.7-1.3-1-2-.5-.7.4-1 1.3-.5 2l1 1.7c.4.7 1.3 1 2 .5s1-1.3.5-2l-1-1.7zM48.8 24l1.7-1c.7-.4 1-1.3.5-2-.4-.7-1.3-1-2-.5l-1.7 1c-.7.4-1 1.3-.5 2 .3.7 1.3 1 2 .5zM15.2 40l-1.7 1c-.7.4-1 1.3-.5 2 .4.7 1.3 1 2 .5l1.7-1c.7-.4 1-1.3.5-2s-1.3-1-2-.5zM16.7 21.5l-1.7-1c-.7-.4-1.6-.2-2 .5s-.2 1.6.5 2l1.7 1c.7.4 1.6.2 2-.5s.2-1.6-.5-2zM50.5 41l-1.7-1c-.7-.4-1.6-.2-2 .5s-.2 1.6.5 2l1.7 1c.7.4 1.6.2 2-.5.5-.7.2-1.6-.5-2zM43 12.9c-.7-.4-1.6-.2-2 .5l-1 1.7c-.4.7-.2 1.6.5 2s1.6.2 2-.5l1-1.7c.5-.6.2-1.5-.5-2z"/><circle class="st3" cx="32" cy="32" r="14.4"/></svg>