<svg xmlns="http://www.w3.org/2000/svg" xmlns:xlink="http://www.w3.org/1999/xlink" viewBox="0 0 24 24"><defs><style>.a{fill:none;}.b{clip-path:url(#a);}</style><clipPath id="a" transform="translate(0 0)"><rect class="a" width="24" height="24"/></clipPath></defs><title>linkedIn</title><g class="b"><path d="M3,1A2,2,0,1,0,5,3,2,2,0,0,0,3,1ZM3,6A3,3,0,1,1,6,3,3,3,0,0,1,3,6Z" transform="translate(0 0)"/><path d="M1,23H5V9H1Zm4.5,1H.5a.5.5,0,0,1-.5-.5V8.5A.5.5,0,0,1,.5,8h5a.5.5,0,0,1,.5.5v15A.5.5,0,0,1,5.5,24Z" transform="translate(0 0)"/><path d="M19,23h4V13.5c0-2.78-1.05-4.6-2.93-5.24a6.43,6.43,0,0,0-6.18,1.56A.5.5,0,0,1,13,9.5V9H9V23h4V12.5a.5.5,0,0,1,.15-.36,3.66,3.66,0,0,1,3.94-.9A3.3,3.3,0,0,1,19,14.5V23Zm4.5,1h-5a.5.5,0,0,1-.5-.5v-9a2.35,2.35,0,0,0-1.3-2.34,2.62,2.62,0,0,0-2.7.56V23.5a.5.5,0,0,1-.5.5h-5a.5.5,0,0,1-.5-.5V8.5A.5.5,0,0,1,8.5,8h5a.5.5,0,0,1,.48.38A7.59,7.59,0,0,1,20.4,7.31C22,7.87,23.94,9.39,24,13.5v10A.5.5,0,0,1,23.5,24Z" transform="translate(0 0)"/></g></svg>