<svg xmlns="http://www.w3.org/2000/svg" xmlns:xlink="http://www.w3.org/1999/xlink" viewBox="0 0 14 24"><defs><style>.a{fill:none;}.b{clip-path:url(#a);}</style><clipPath id="a" transform="translate(-5)"><rect class="a" width="24" height="24"/></clipPath></defs><title>mobile</title><g class="b"><path d="M7.5,1A1.5,1.5,0,0,0,6,2.5v19A1.5,1.5,0,0,0,7.5,23h9A1.5,1.5,0,0,0,18,21.5V2.5A1.5,1.5,0,0,0,16.5,1Zm9,23h-9A2.5,2.5,0,0,1,5,21.5V2.5A2.5,2.5,0,0,1,7.5,0h9A2.5,2.5,0,0,1,19,2.5v19A2.5,2.5,0,0,1,16.5,24Z" transform="translate(-5)"/><path d="M18.5,5H5.5a.5.5,0,0,1,0-1h13a.5.5,0,0,1,0,1Z" transform="translate(-5)"/><path d="M18.5,20H5.5a.5.5,0,0,1,0-1h13a.5.5,0,0,1,0,1Z" transform="translate(-5)"/><path d="M12.5,3h-1a.5.5,0,0,1,0-1h1a.5.5,0,0,1,0,1Z" transform="translate(-5)"/><path d="M15.52,3A.5.5,0,0,1,15,2.5a.5.5,0,0,1,.49-.5h0a.5.5,0,0,1,0,1Z" transform="translate(-5)"/><path d="M9.5,22h-2a.5.5,0,0,1,0-1h2a.5.5,0,0,1,0,1Z" transform="translate(-5)"/><path d="M16.5,22h-2a.5.5,0,0,1,0-1h2a.5.5,0,0,1,0,1Z" transform="translate(-5)"/></g></svg>