<svg xmlns="http://www.w3.org/2000/svg" viewBox="0 0 64 64" enable-background="new 0 0 64 64"><style type="text/css">.st0{fill:#E0995E;} .st1{opacity:0.3;fill:#231F20;} .st2{fill:#4F5D73;} .st3{fill:#FFFFFF;} .st4{opacity:0.2;fill:#FFFFFF;enable-background:new ;} .st5{fill:#E0E0D1;}</style><circle class="st0" cx="32" cy="32" r="32"/><path class="st1" d="M47 44v5c0 2.2-1.8 4-4 4h-22c-2.2 0-4-1.8-4-4v-5h30z"/><path class="st2" d="M45.5 13v34h-27v-34h27z"/><path class="st3" d="M43 11h-22c-2.2 0-4 1.8-4 4v32c0 2.2 1.8 4 4 4h22c2.2 0 4-1.8 4-4v-32c0-2.2-1.8-4-4-4zm-23 4c0-.6.4-1 1-1h22c.6 0 1 .4 1 1v28h-24v-28z"/><path class="st4" d="M45 45v-32.5h-20.3l13.4 32.5h6.9z"/><circle class="st5" cx="32" cy="47" r="2"/></svg>