<svg xmlns="http://www.w3.org/2000/svg" xmlns:xlink="http://www.w3.org/1999/xlink" viewBox="0 0 24 11"><defs><style>.a{fill:none;}.b{clip-path:url(#a);}</style><clipPath id="a" transform="translate(0 -6.5)"><rect class="a" width="24" height="24"/></clipPath></defs><title>sendmail</title><g class="b"><path d="M9.33,7.5a1.49,1.49,0,0,0-1.39.94L5,15.81a.5.5,0,0,0,.47.69H18.62A1.49,1.49,0,0,0,20,15.56L23,8.19a.5.5,0,0,0-.47-.69Zm9.29,10H5.45a1.5,1.5,0,0,1-1.39-2.06L7,8.07A2.49,2.49,0,0,1,9.33,6.5H22.5a1.5,1.5,0,0,1,1.39,2.06l-2.95,7.37A2.48,2.48,0,0,1,18.62,17.5Z" transform="translate(0 -6.5)"/><path d="M14,12.51a3.47,3.47,0,0,1-2.14-.74L9.17,9.37a.5.5,0,1,1,.66-.75L12.5,11a2.48,2.48,0,0,0,2.57.27l5.2-2.71a.5.5,0,1,1,.46.89l-5.22,2.72A3.55,3.55,0,0,1,14,12.51Z" transform="translate(0 -6.5)"/><path d="M6.5,15.5a.5.5,0,0,1-.19-1l5-2a.5.5,0,0,1,.37.93l-5,2A.5.5,0,0,1,6.5,15.5Z" transform="translate(0 -6.5)"/><path d="M18.5,15.5a.51.51,0,0,1-.31-.11l-2.5-2a.5.5,0,0,1,.62-.78l2.5,2a.5.5,0,0,1-.31.89Z" transform="translate(0 -6.5)"/><path d="M4.5,8.5H.5a.5.5,0,0,1,0-1h4a.5.5,0,0,1,0,1Z" transform="translate(0 -6.5)"/><path d="M1.5,16.5H.5a.5.5,0,0,1,0-1h1a.5.5,0,0,1,0,1Z" transform="translate(0 -6.5)"/><path d="M2.5,12.5H.5a.5.5,0,0,1,0-1h2a.5.5,0,0,1,0,1Z" transform="translate(0 -6.5)"/></g></svg>