<svg xmlns="http://www.w3.org/2000/svg" viewBox="0 0 64 64" enable-background="new 0 0 64 64"><style type="text/css">.st0{fill:#F5CF87;} .st1{opacity:0.2;fill:#231F20;enable-background:new ;} .st2{fill:#4F5D73;} .st3{fill:#C75C5C;} .st4{fill:#E0995E;}</style><circle class="st0" cx="32" cy="32" r="32"/><path class="st1" d="M40.9 40.5l-1.4 5.8c-.4 1.6-1.8 2.7-3.4 2.7-.3 0-.6 0-.8-.1l-9.7-2.4c-1.9-.5-3-2.4-2.6-4.2l1.4-5.8 16.5 4zm-13.9-2.3l-1.1 4.8c-.1.3.1.5.4.6l9.7 2.4c.2.1.5 0 .6-.4l1.2-4.8-10.8-2.6z"/><path class="st2" d="M40.9 38.5l-1.4 5.8c-.4 1.6-1.8 2.7-3.4 2.7-.3 0-.6 0-.8-.1l-9.7-2.4c-1.9-.5-3-2.4-2.6-4.2l1.4-5.8 16.5 4zm-13-3.7-1.3 2.8l-.7 3.4c-.1.3.1.5.4.6l9.7 2.4c.2.1.5 0 .6-.4l.8-3.4-10.8-2.6z"/><path class="st1" d="M50 47c1.4 0 2-.9 2-2v-22l-42 8v6c0 1.1.9 2 2 2 .7 0 1.3-.4 1.7-.9l34.3 7.4s.7 1.5 2 1.5z"/><path class="st3" d="M48 43.5l-37-8v-7l37-8z"/><path class="st4" d="M14 35c0 1.1-.9 2-2 2s-2-.9-2-2v-6c0-1.1.9-2 2-2s2 .9 2 2v6zM52 43c0 1.1-.9 2-2 2s-2-.9-2-2v-22c0-1.1.9-2 2-2s2 .9 2 2v22z"/></svg>