<svg xmlns="http://www.w3.org/2000/svg" xmlns:xlink="http://www.w3.org/1999/xlink" viewBox="0 0 23.59 23.58"><defs><style>.a{fill:none;}.b{clip-path:url(#a);}</style><clipPath id="a" transform="translate(-0.21 -0.21)"><rect class="a" width="24" height="24"/></clipPath></defs><title>tag</title><g class="b"><path d="M14.71,1.21a.5.5,0,0,0-.35.15l-13,13a.5.5,0,0,0,0,.71l7.59,7.59a.5.5,0,0,0,.71,0l13-13a.5.5,0,0,0,.15-.35V1.71a.5.5,0,0,0-.5-.5ZM9.29,23.79a1.5,1.5,0,0,1-1.06-.44L.65,15.77a1.5,1.5,0,0,1,0-2.12l13-13A1.51,1.51,0,0,1,14.71.21h7.59a1.5,1.5,0,0,1,1.5,1.5V9.29a1.49,1.49,0,0,1-.44,1.06l-13,13A1.5,1.5,0,0,1,9.29,23.79Z" transform="translate(-0.21 -0.21)"/><path d="M18.29,4.21a1.5,1.5,0,1,0,1.5,1.5A1.5,1.5,0,0,0,18.29,4.21Zm0,4a2.5,2.5,0,1,1,2.5-2.5A2.5,2.5,0,0,1,18.29,8.21Z" transform="translate(-0.21 -0.21)"/></g></svg>