<svg xmlns="http://www.w3.org/2000/svg" viewBox="0 0 64 64" enable-background="new 0 0 64 64"><style type="text/css">.st0{fill:#76C2AF;} .st1{opacity:0.2;fill:#231F20;enable-background:new ;} .st2{fill:#4F5D73;} .st3{fill:#F5CF87;} .st4{fill:#FFFFFF;}</style><circle class="st0" cx="32" cy="32" r="32"/><path class="st1" d="M13.7 15.4l-1.6 1.6 3 5.9 5.9 3 8.1 8c-.4 1.3 0 2.8 1 3.8l14.1 14.1c1.6 1.6 4.1 1.6 5.7 0 1.6-1.5 1.6-4 0-5.6l-2.4 2.7-33.8-33.5z"/><path class="st2" d="M31.2 28.4l-2.9 2.8-7.4-7.4-5.8-2.9-3-5.9 2.8-2.9 5.9 3.1 3.1 5.9z"/><path class="st3" d="M36.9 31.1l13 13c1.6 1.6 1.6 4.1 0 5.7-1.6 1.6-4.1 1.6-5.7 0l-13-13.1 5.7-5.6z"/><path class="st1" d="M34.7 23.6l-11 11-13.7 11.4c0 1.3.3 2.5.7 3.6l6.5-6.5c1.6-1.6 4.1-1.6 5.7 0s1.6 4.1 0 5.7l-6.5 6.5c1.1.4 2.4.7 3.6.7 5.5 0 10-4.5 10-10 0-1.3-.3-2.5-.7-3.6l11-11c1.1.4 2.4.7 3.6.7 5.5 0 10-4.5 10-10 .1-1.4-.2-2.6-.6-3.7l-6.5 6.5c-1.6 1.6-4.1 1.6-5.7 0-1.6-1.6-1.6-4.1 0-5.7l6.5-6.5c-1.1-.4-2.3-.7-3.6-.7l-9.3 11.6z"/><path class="st4" d="M53.3 16.4l-6.5 6.5c-1.6 1.6-4.1 1.6-5.7 0-1.6-1.6-1.6-4.1 0-5.7l6.5-6.5c-1.1-.4-2.3-.7-3.6-.7-5.5 0-10 4.5-10 10 0 1.3.3 2.5.7 3.6l-11 11c-1.2-.3-2.4-.6-3.7-.6-5.5 0-10 4.5-10 10 0 1.3.3 2.5.7 3.6l6.5-6.5c1.6-1.6 4.1-1.6 5.7 0s1.6 4.1 0 5.7l-6.5 6.5c1.1.4 2.4.7 3.6.7 5.5 0 10-4.5 10-10 0-1.3-.3-2.5-.7-3.6l11-11c1.1.4 2.4.7 3.6.7 5.5 0 10-4.5 10-10 .1-1.4-.2-2.6-.6-3.7z"/></svg>