<svg xmlns="http://www.w3.org/2000/svg" viewBox="0 0 64 64" enable-background="new 0 0 64 64"><style type="text/css">.st0{fill:#8CBAA9;} .st1{opacity:0.2;enable-background:new ;} .st2{fill:#272324;} .st3{opacity:0.2;fill:#272324;enable-background:new ;} .st4{fill:#A95B5B;} .st5{fill:#C89562;} .st6{fill:#E5CA8A;} .st7{fill:#535C70;}</style><path class="st0" d="M32 0c-17.7 0-32 14.3-32 32s14.3 32 32 32 32-14.3 32-32-14.3-32-32-32z"/><g class="st1"><path class="st2" d="M25.3 34.5l-6.7-6.7-2.9-8.4-1.4-4.2 17.5 11.6s13-11.8 18.1-10.6c2.1.5-5 10.7-10.3 16.9l11 10.5c.5 1 .4 2-.2 2.6l-5.2 5.2c-.9.8-2.5.6-3.7-.6l-10.2-10.1c-.8.5-1.5.8-2.1 1 .2 1.5-.2 3.1-.9 4.4-.3.5-.7 1.1-1.1 1.5-4.2 4.3-13 3.6-15.2 1.4l13.3-14.5zM25.3 34.5l-6.7-6.7-2.9-8.4-1.4-4.2 17.5 11.6s13-11.8 18.1-10.6c2.1.5-5 10.7-10.3 16.9l11 10.5c.5 1 .4 2-.2 2.6l-5.2 5.2c-.9.8-2.5.6-3.7-.6l-10.2-10.1c-.8.5-1.5.8-2.1 1 .2 1.5-.2 3.1-.9 4.4-.3.5-.7 1.1-1.1 1.5-4.2 4.3-13 3.6-15.2 1.4l13.3-14.5z"/></g><path class="st3" d="M38.3 32.7"/><path class="st3" d="M32.9 39.8c-.5.4-1.1.7-1.6.9l-1.1-1.2c.3-.6.9-.9 1.6-.9l1.1 1.2zM38.3 32.7"/><g id="Layer_2"><path class="st4" d="M46.4 36.7l3.5 3.5c1.1 1.1 1.4 2.6.8 3.5 0 .1-.1.2-.2.2l-5.2 5.2c-.9.8-2.5.6-3.7-.6l-3.5-3.4 8.3-8.4z"/><path class="st5" d="M17.9 16.5l.8 8.8 19.5 19.8 8.3-8.4-19.6-19.6-9-.6z"/><path class="st6" d="M29.3 39.8c-1.3.1-5.2-4.8-5.2-4.8 1.8-7.2 22.5-22.7 25.3-20.3 2.7 2.3-12.1 24.8-20.1 25.1zM18.6 25.3l-3-8.3.7-.7.4-.3 1.7-1.7 8.5 2.8-1 1 .3 2.5-4.9-.8-.1 4.6h-1.7z"/><path class="st7" d="M18.4 14.3l-1.7 1.7-.4.3-.7.7-.5-1.5-.9-2.7zM28.7 43.2c-.2.4-.4.7-.6.9-.7.1-4 .5-5.7-2-.4-.4-.7-.9-1.2-1.2-1.2-.9-2.8-1-3.7-1h-1v-.1c1.3-3.7 4.6-5.2 7.6-4.9 2.6.3 4.9 2 5.2 4.8 0 1.1-.1 2.3-.6 3.5z"/><path class="st4" d="M28.2 44.1c-1 1.7-3.1 3.1-5.6 3.9-3.1 1.1-6.8 1.2-9.3-.2-.5-.3-1-.6-1.4-1 3-2 3.7-4.8 4.5-7v.1h1c1 0 2.5.1 3.7 1 .4.3.8.8 1.2 1.2 1.8 2.5 5.1 2.1 5.9 2z"/></g></svg>